<svg xmlns="http://www.w3.org/2000/svg" width="512" height="512" viewBox="0 0 512 512"><clipPath id="a"><path d="M0 0h512v512H0z"/></clipPath><g clip-path="url(#a)"><path fill="#41b883" d="M204.41 162.957h-29.094V59.68H122.53V30.585h81.88z"/><path fill="#00ecce" d="M278.131 162.957h-29.095V66.605h65.38V95.7h-36.285zm123.053 50.16h-29.095v-35.612h-65.085V148.41h94.18zm-94.18 93.514h131.811v29.095H307.004zm-57.968 14.547h29.095v107.053h-29.095z"/><path fill="#41b883" d="M278.131 162.957h-29.095V66.605h65.38V95.7h-36.285zm123.053 50.16h-29.095v-35.612h-65.085V148.41h94.18zm-94.18 93.514h131.811v29.095H307.004zm-57.968 14.547h29.095v107.053h-29.095zm-137.543 66.655H82.398v-81.2h107.465v29.095h-78.37zm78.37-131.218H33.585v-68.578H62.68v39.483h127.183z"/><path fill="#e7dfdd" d="M175.316 148.41h146.236v187.318H175.316z"/><circle cx="40.132" cy="40.132" r="40.132" fill="#34495e" transform="translate(56.813 5)"/><path fill="#34495e" d="M48.132 122.824a40.132 40.132 0 1 0 40.132 40.131 40.176 40.176 0 0 0-40.132-40.131z"/><circle cx="40.132" cy="40.132" r="40.132" fill="#00cbb1" transform="translate(299.868 41.02)"/><ellipse cx="40.131" cy="40.132" fill="#00cbb1" rx="40.131" ry="40.132" transform="rotate(-9.25 1450.208 -2010.483)"/><circle cx="40.132" cy="40.132" r="40.132" fill="#00cbb1" transform="rotate(-67.486 461.65 79.687)"/><circle cx="40.132" cy="40.132" r="40.132" fill="#34495e" transform="translate(56.813 373.286)"/><circle cx="40.132" cy="40.132" r="40.132" fill="#00cbb1" transform="translate(424.268 281.046)"/><circle cx="40.132" cy="40.132" r="40.132" fill="#34495e" transform="translate(299.868 41.02)"/><ellipse cx="40.131" cy="40.132" fill="#34495e" rx="40.131" ry="40.132" transform="rotate(-9.25 1450.208 -2010.483)"/><circle cx="40.132" cy="40.132" r="40.132" fill="#34495e" transform="rotate(-67.486 461.65 79.687)"/><circle cx="40.132" cy="40.132" r="40.132" fill="#34495e" transform="translate(424.268 281.046)"/><g fill="#41b883"><path d="M248.945 321.383l-4.33-7.5-88.31-152.959-4.33-7.5h79.463l1.443 2.5 16.064 27.824 16.064-27.823 1.443-2.5h79.463l-4.33 7.5-88.31 152.958z"/><path fill="#e7dfdd" d="M160.635 158.425l88.31 152.958 88.31-152.958h-67.916l-20.394 35.324-20.394-35.324zm-17.32-10h91.01l2.886 5 11.734 20.323 11.734-20.323 2.887-5h91.009l-8.66 15-88.31 152.958-8.66 15-8.66-15-88.31-152.959z"/></g><path fill="#41b883" d="M269.336 158.424l-20.392 35.324-20.394-35.324h-67.914l88.31 152.958 88.308-152.958z"/><path fill="#34495e" d="M269.339 158.424l-20.394 35.324-20.394-35.324h-32.592l52.986 91.773 52.986-91.773z"/></g></svg>