<svg width="395" height="74" viewBox="0 0 395 74" fill="none" xmlns="http://www.w3.org/2000/svg">
<path d="M72.4981 48.856C72.4981 51.16 71.9861 53.336 70.9621 55.384C68.7861 59.992 64.6261 63.832 58.4821 66.904C52.3381 69.976 45.9381 71.512 39.2821 71.512C29.1701 71.512 22.2901 68.056 18.6421 61.144C12.0501 66.648 7.34613 69.4 4.53013 69.4C4.01813 69.4 3.57013 69.304 3.18613 69.112C1.26613 68.088 0.306125 65.88 0.306125 62.488C0.306125 59.096 1.71413 54.936 4.53013 50.008C7.34613 45.08 9.81013 42.168 11.9221 41.272C12.8821 40.952 13.6181 40.792 14.1301 40.792C15.9861 40.792 17.3941 42.328 18.3541 45.4L21.2341 54.616C23.0901 52.632 25.6181 49.464 28.8181 45.112L37.3621 33.592C47.8581 19.96 54.7381 12.504 58.0021 11.224C59.1541 10.776 60.3381 10.552 61.5541 10.552C62.7701 10.552 63.7621 10.808 64.5301 11.32C65.3621 11.832 65.7781 12.472 65.7781 13.24C65.7781 14.392 64.8501 15.064 62.9941 15.256C61.0741 16.344 57.3941 19.544 51.9541 24.856C46.5781 30.104 43.3781 33.432 42.3541 34.84C35.1861 44.824 28.5621 52.504 22.4821 57.88C26.3861 65.624 32.2421 69.496 40.0501 69.496C44.7861 69.496 49.4901 68.024 54.1621 65.08C58.8341 62.072 62.3221 58.392 64.6261 54.04C65.6501 52.184 66.1621 50.104 66.1621 47.8C66.1621 45.496 65.2341 43.32 63.3781 41.272C61.5861 39.16 59.3141 37.624 56.5621 36.664C55.2821 36.472 53.2341 36.216 50.4181 35.896C47.6021 35.512 46.1941 34.904 46.1941 34.072C46.1941 33.752 46.3221 33.464 46.5781 33.208C47.3461 32.312 48.3381 31.864 49.5541 31.864C50.2581 31.864 50.9301 31.992 51.5701 32.248C52.2741 32.504 52.8181 32.696 53.2021 32.824C53.5861 32.952 54.0341 33.112 54.5461 33.304C55.9541 33.432 57.1701 33.496 58.1941 33.496C62.4181 33.496 66.2581 32.824 69.7141 31.48C74.1301 29.752 76.9461 27.16 78.1621 23.704C78.9301 21.464 79.3141 19.448 79.3141 17.656C79.3141 13.24 77.1701 9.944 72.8821 7.768C69.1701 5.848 64.0821 4.888 57.6181 4.888C47.4421 4.888 38.3221 6.808 30.2581 10.648C26.1621 12.568 22.2581 15.416 18.5461 19.192C14.8981 22.968 13.0741 26.2 13.0741 28.888C13.0741 30.744 13.5541 32.28 14.5141 33.496C14.8981 34.008 15.5701 34.648 16.5301 35.416C16.8501 35.608 16.6581 35.704 15.9541 35.704C11.9861 34.808 10.0021 32.152 10.0021 27.736C10.0021 23.32 12.2421 19.16 16.7221 15.256C20.0501 12.376 23.7941 10.04 27.9541 8.248C36.5941 4.536 46.4181 2.68 57.4261 2.68C65.2981 2.68 71.5701 3.832 76.2421 6.136C81.6821 8.696 84.4021 12.568 84.4021 17.752C84.4021 19.8 83.9861 21.88 83.1541 23.992C81.8101 27.832 78.3221 30.744 72.6901 32.728C68.4661 34.2 63.9221 34.968 59.0581 35.032C62.8341 35.224 66.0021 36.632 68.5621 39.256C71.1861 41.816 72.4981 45.016 72.4981 48.856ZM11.1541 45.304C11.0901 45.304 10.9301 45.368 10.6741 45.496C5.93813 52.344 3.57013 57.848 3.57013 62.008C3.57013 63.736 3.98613 65.304 4.81813 66.712C5.01013 67.032 5.33013 67.192 5.77813 67.192C7.82613 67.192 11.7621 64.28 17.5861 58.456L17.2981 58.072C14.7381 49.56 12.6901 45.304 11.1541 45.304ZM82.1304 68.248C81.4264 68.248 80.7864 68.152 80.2104 67.96C76.1144 66.808 74.0664 64.504 74.0664 61.048C74.0664 56.568 76.8824 51.384 82.5144 45.496C88.1464 39.608 93.2024 36.664 97.6824 36.664C99.1544 36.664 100.338 37.08 101.234 37.912C102.194 38.68 102.674 39.64 102.674 40.792C102.674 44.376 99.9544 47.8 94.5144 51.064C89.1384 54.328 84.7544 55.96 81.3624 55.96C80.8504 55.96 80.4024 55.896 80.0184 55.768C79.0584 57.496 78.5784 59.32 78.5784 61.24C78.5784 64.568 80.1464 66.232 83.2824 66.232C86.4824 66.232 90.6104 64.088 95.6664 59.8C99.5704 56.664 102.898 53.336 105.65 49.816C106.226 49.048 106.706 48.664 107.09 48.664C107.538 48.664 107.762 48.856 107.762 49.24C107.762 49.624 107.506 50.168 106.994 50.872C103.538 55.416 99.3784 59.448 94.5144 62.968C89.6504 66.488 85.5224 68.248 82.1304 68.248ZM100.274 40.6C100.274 39.832 99.4424 39.448 97.7784 39.448C96.1784 39.448 93.8744 40.696 90.8664 43.192C86.8344 46.52 83.6984 50.008 81.4584 53.656C81.8424 53.784 82.2584 53.848 82.7064 53.848C85.1384 53.848 88.3704 52.568 92.4024 50.008C96.4984 47.384 99.0584 44.536 100.082 41.464C100.21 41.144 100.274 40.856 100.274 40.6ZM147.779 65.848C143.427 65.848 141.251 63.832 141.251 59.8C141.251 57.496 142.275 54.36 144.323 50.392C146.371 46.36 148.515 42.968 150.755 40.216C146.787 42.136 142.211 45.624 137.027 50.68C131.843 55.672 128.227 60.92 126.179 66.424C125.859 66.936 125.315 67.192 124.547 67.192C123.011 67.192 122.243 66.328 122.243 64.6C122.883 61.08 124.323 57.048 126.563 52.504C127.267 51.032 129.347 46.744 132.803 39.64C127.811 42.904 123.555 46.424 120.035 50.2C116.579 53.912 113.347 57.656 110.339 61.432C107.395 65.208 105.731 67.096 105.347 67.096C104.515 67.096 103.779 66.712 103.139 65.944C102.563 65.176 102.275 64.408 102.275 63.64C102.275 62.488 103.939 58.264 107.267 50.968L101.507 57.016C100.099 58.424 99.2346 59.128 98.9146 59.128C98.5306 59.128 98.3386 58.936 98.3386 58.552C98.3386 58.104 98.5946 57.624 99.1066 57.112C101.475 54.744 103.587 52.376 105.443 50.008C107.299 47.64 110.371 43.416 114.659 37.336C115.363 36.376 116.355 35.896 117.635 35.896C118.915 35.896 119.555 36.504 119.555 37.72C119.555 38.168 117.859 41.304 114.467 47.128C111.075 52.888 109.187 56.504 108.803 57.976C111.427 55.096 115.363 51.224 120.611 46.36C128.483 39.064 133.667 35.416 136.163 35.416C136.931 35.416 137.635 35.64 138.275 36.088C138.915 36.536 139.235 37.048 139.235 37.624C139.235 38.136 137.987 40.536 135.491 44.824C133.059 49.24 131.715 51.864 131.459 52.696C138.563 46.744 142.115 43.736 142.115 43.672C148.131 39 152.451 36.664 155.075 36.664C155.843 36.664 156.547 36.92 157.187 37.432C157.891 37.88 158.243 38.424 158.243 39.064C158.243 39.192 156.163 41.912 152.003 47.224C147.843 52.472 145.507 56.792 144.995 60.184C144.867 61.336 145.091 62.2 145.667 62.776C146.243 63.352 147.267 63.64 148.739 63.64C150.275 63.64 152.483 62.616 155.363 60.568C158.307 58.456 161.283 55.64 164.291 52.12C165.443 50.84 166.211 50.2 166.595 50.2C167.043 50.2 167.267 50.36 167.267 50.68C167.267 51.128 166.979 51.64 166.403 52.216C163.267 55.992 159.875 59.224 156.227 61.912C152.643 64.536 149.827 65.848 147.779 65.848ZM172.533 42.04L181.845 42.136C185.557 42.136 188.213 42.04 189.813 41.848C189.877 41.912 189.909 42.008 189.909 42.136C189.909 43.096 187.381 44.024 182.325 44.92C179.573 45.304 176.981 45.72 174.549 46.168C172.181 46.552 170.645 46.744 169.941 46.744C169.301 46.744 168.181 46.616 166.581 46.36C165.045 46.04 164.277 45.4 164.277 44.44C164.277 43.8 164.533 43.256 165.045 42.808C165.621 42.36 166.101 42.136 166.485 42.136C166.869 42.136 167.253 42.104 167.637 42.04H170.133C170.837 42.04 171.637 42.04 172.533 42.04ZM218.793 39.544C219.689 39.544 220.137 40.6 220.137 42.712C220.137 45.912 218.537 48.92 215.337 51.736C212.201 54.488 208.585 55.864 204.489 55.864C201.865 55.864 199.337 55.224 196.905 53.944C191.721 51.128 189.129 46.232 189.129 39.256C189.129 34.328 190.473 29.496 193.161 24.76C196.873 18.296 202.185 13.176 209.097 9.4C216.073 5.624 222.857 3.736 229.449 3.736C234.249 3.736 238.185 4.792 241.257 6.904C244.713 9.272 246.441 12.792 246.441 17.464C246.441 23.416 243.561 32.76 237.801 45.496C232.041 58.168 229.161 65.336 229.161 67C229.161 67.512 229.321 67.672 229.641 67.48C231.305 66.392 238.921 57.72 252.489 41.464C266.121 25.144 275.593 15.064 280.905 11.224C285.641 7.704 289.577 5.08 292.713 3.352C295.913 1.56 299.177 0.663996 302.505 0.663996C303.401 0.663996 304.073 0.695995 304.521 0.759995C306.249 0.887997 307.113 1.784 307.113 3.44799C307.113 4.27999 306.825 4.696 306.249 4.696C306.185 4.696 305.737 4.568 304.905 4.31199C304.073 3.99199 303.369 3.832 302.793 3.832C293.833 3.832 281.769 11.928 266.601 28.12C260.905 34.2 253.961 42.392 245.769 52.696C237.641 63 232.841 68.568 231.369 69.4C226.185 72.344 223.273 73.816 222.633 73.816C222.441 73.816 222.345 73.496 222.345 72.856C222.345 70.744 224.137 65.368 227.721 56.728C229.193 53.4 231.337 48.408 234.153 41.752L238.569 28.792C240.105 24.44 240.873 21.272 240.873 19.288C240.873 14.872 239.593 11.512 237.033 9.20799C234.473 6.904 230.793 5.752 225.993 5.752C221.193 5.752 216.041 7.448 210.537 10.84C204.585 14.68 200.137 19.416 197.193 25.048C194.249 30.68 192.777 35.448 192.777 39.352C192.777 43.256 193.577 46.328 195.177 48.568C197.801 52.216 201.289 54.04 205.641 54.04C208.969 54.04 211.913 52.952 214.473 50.776C217.033 48.536 218.313 45.72 218.313 42.328C218.313 41.624 218.217 40.984 218.025 40.408C217.897 39.832 218.153 39.544 218.793 39.544ZM278.066 27.832C279.026 27.832 279.922 28.152 280.754 28.792C281.65 29.368 282.098 30.072 282.098 30.904C282.098 31.736 281.682 32.472 280.85 33.112C280.082 33.688 279.218 33.976 278.258 33.976C277.298 33.976 276.402 33.624 275.57 32.92C274.802 32.216 274.418 31.416 274.418 30.52C274.418 28.728 275.634 27.832 278.066 27.832ZM260.69 68.056C257.426 68.056 255.794 65.944 255.794 61.72C255.794 58.264 257.682 53.496 261.458 47.416C265.234 41.272 268.274 38.168 270.578 38.104C271.218 38.104 271.922 38.36 272.69 38.872C273.522 39.384 273.938 39.896 273.938 40.408C273.618 40.856 273.234 41.368 272.786 41.944C272.338 42.456 271.858 43.032 271.346 43.672C270.834 44.312 270.13 45.24 269.234 46.456C268.338 47.608 267.474 48.728 266.642 49.816C261.842 56.024 259.442 60.312 259.442 62.68C259.442 64.984 260.242 66.136 261.842 66.136C263.186 66.136 265.01 65.4 267.314 63.928C272.69 60.6 276.946 56.952 280.082 52.984C281.234 51.512 282.002 50.776 282.386 50.776C282.834 50.776 283.058 51.032 283.058 51.544C283.058 52.056 282.322 53.08 280.85 54.616C279.378 56.152 278.194 57.368 277.298 58.264C276.466 59.16 275.89 59.768 275.57 60.088C275.25 60.344 274.642 60.888 273.746 61.72C272.914 62.488 272.274 63.032 271.826 63.352C271.378 63.672 270.738 64.152 269.906 64.792C269.074 65.432 268.338 65.912 267.698 66.232C267.058 66.488 266.322 66.808 265.49 67.192C264.146 67.768 262.546 68.056 260.69 68.056ZM294.347 36.664C296.075 36.664 296.939 37.336 296.939 38.68C296.939 39.064 296.843 39.448 296.651 39.832C290.891 47.832 287.435 53.88 286.283 57.976C301.195 43.064 310.251 35.608 313.451 35.608C313.771 35.544 314.059 35.512 314.315 35.512C316.107 35.512 317.003 36.312 317.003 37.912C317.003 38.232 316.939 38.552 316.811 38.872C316.683 39.192 315.403 40.92 312.971 44.056C310.155 47.384 307.755 50.584 305.771 53.656C303.851 56.728 302.891 59.288 302.891 61.336C302.891 63.384 303.339 64.408 304.235 64.408C307.051 64.408 311.947 60.536 318.923 52.792C319.051 52.664 319.275 52.376 319.595 51.928C320.555 50.776 321.131 50.2 321.323 50.2C321.515 50.2 321.611 50.52 321.611 51.16C321.611 51.8 321.163 52.632 320.267 53.656C312.331 62.68 306.699 67.192 303.371 67.192C300.235 67.192 298.667 65.464 298.667 62.008C298.667 58.552 299.947 54.584 302.507 50.104L308.651 40.12C304.299 43.32 300.427 46.84 297.035 50.68C293.643 54.456 290.539 58.136 287.723 61.72C284.971 65.304 283.371 67.096 282.923 67.096C281.963 67.096 281.195 66.712 280.619 65.944C280.107 65.112 279.851 64.12 279.851 62.968C279.851 61.752 280.267 60.152 281.099 58.168C281.931 56.184 282.987 53.784 284.267 50.968L278.507 57.016C277.099 58.424 276.235 59.128 275.915 59.128C275.531 59.128 275.339 58.936 275.339 58.552C275.339 58.104 275.595 57.624 276.107 57.112C278.475 54.744 280.523 52.472 282.251 50.296C283.915 48.12 287.339 43.96 292.523 37.816C293.099 37.048 293.707 36.664 294.347 36.664ZM349.193 37.912C356.361 26.264 361.353 20.44 364.169 20.44C364.617 20.44 365.225 20.6 365.993 20.92C366.825 21.176 367.241 21.592 367.241 22.168C367.241 22.488 367.081 22.904 366.761 23.416C361.641 29.688 357.833 34.392 355.337 37.528C347.785 47.064 343.625 53.912 342.857 58.072C342.665 58.968 342.569 59.864 342.569 60.76C342.569 63.64 343.753 65.08 346.121 65.08C350.857 65.08 357.033 60.696 364.649 51.928C365.289 51.288 365.833 50.936 366.281 50.872C366.729 50.744 366.953 50.84 366.953 51.16C366.953 51.48 366.761 51.864 366.377 52.312C358.953 61.208 352.361 66.168 346.601 67.192C346.281 67.256 345.833 67.288 345.257 67.288C343.273 67.288 341.769 66.616 340.745 65.272C339.785 63.864 339.305 62.36 339.305 60.76C339.305 58.968 339.657 56.984 340.361 54.808L332.585 62.584C329.065 65.848 326.281 67.48 324.233 67.48C322.249 67.48 320.585 66.936 319.241 65.848C317.641 64.632 316.841 62.936 316.841 60.76C316.841 56.088 320.105 50.52 326.633 44.056C333.161 37.528 339.145 34.264 344.585 34.264C346.377 34.264 347.625 34.744 348.329 35.704C348.585 36.024 348.873 36.76 349.193 37.912ZM320.873 61.912C320.873 64.216 321.673 65.368 323.273 65.368C326.025 65.368 330.601 61.592 337.001 54.04C338.153 52.696 341.993 47.672 348.521 38.968C348.073 38.2 347.305 37.816 346.217 37.816C342.249 37.816 337.033 40.856 330.569 46.936C324.105 52.952 320.873 57.944 320.873 61.912ZM387.478 46.648C387.478 48.888 385.334 52.632 381.046 57.88C375.99 64.088 371.67 67.192 368.086 67.192H366.55C364.886 67.192 363.574 66.328 362.614 64.6C361.846 63.384 361.462 62.04 361.462 60.568C361.462 56.728 364.246 51.352 369.814 44.44C375.446 37.464 379.99 33.976 383.446 33.976C386.71 33.976 388.342 35.704 388.342 39.16C388.342 40.056 388.182 41.208 387.862 42.616C387.926 42.808 388.534 42.904 389.686 42.904C390.838 42.904 392.598 42.296 394.966 41.08C394.902 42.168 392.374 43.736 387.382 45.784C387.446 46.04 387.478 46.328 387.478 46.648ZM381.238 41.656C379.062 41.656 375.958 44.216 371.926 49.336C367.958 54.456 365.974 58.232 365.974 60.664C365.974 63.096 366.742 64.312 368.278 64.312C371.03 64.312 374.518 61.816 378.742 56.824C382.966 51.832 385.078 48.248 385.078 46.072C384.054 45.496 382.774 44.024 381.238 41.656Z" fill="#EA6E90"/>
</svg>
