<svg width="270" height="53" viewBox="0 0 270 53" fill="none" xmlns="http://www.w3.org/2000/svg">
<path d="M48.4988 35.904C48.4988 37.44 48.1574 38.8907 47.4748 40.256C46.0241 43.328 43.2508 45.888 39.1548 47.936C35.0588 49.984 30.7921 51.008 26.3548 51.008C19.6134 51.008 15.0268 48.704 12.5948 44.096C8.20008 47.7653 5.06408 49.6 3.18675 49.6C2.84542 49.6 2.54675 49.536 2.29075 49.408C1.01075 48.7253 0.37075 47.2533 0.37075 44.992C0.37075 42.7307 1.30942 39.9573 3.18675 36.672C5.06408 33.3867 6.70675 31.4453 8.11475 30.848C8.75475 30.6347 9.24542 30.528 9.58675 30.528C10.8241 30.528 11.7628 31.552 12.4028 33.6L14.3228 39.744C15.5601 38.4213 17.2454 36.3093 19.3788 33.408L25.0748 25.728C32.0721 16.64 36.6588 11.6693 38.8348 10.816C39.6028 10.5173 40.3921 10.368 41.2028 10.368C42.0134 10.368 42.6748 10.5387 43.1868 10.88C43.7414 11.2213 44.0188 11.648 44.0188 12.16C44.0188 12.928 43.4001 13.376 42.1628 13.504C40.8828 14.2293 38.4294 16.3627 34.8028 19.904C31.2188 23.4027 29.0854 25.6213 28.4028 26.56C23.6241 33.216 19.2081 38.336 15.1548 41.92C17.7574 47.0827 21.6614 49.664 26.8668 49.664C30.0241 49.664 33.1601 48.6827 36.2748 46.72C39.3894 44.7147 41.7148 42.2613 43.2508 39.36C43.9334 38.1227 44.2748 36.736 44.2748 35.2C44.2748 33.664 43.6561 32.2133 42.4188 30.848C41.2241 29.44 39.7094 28.416 37.8748 27.776C37.0214 27.648 35.6561 27.4773 33.7788 27.264C31.9014 27.008 30.9628 26.6027 30.9628 26.048C30.9628 25.8347 31.0481 25.6427 31.2188 25.472C31.7308 24.8747 32.3921 24.576 33.2028 24.576C33.6721 24.576 34.1201 24.6613 34.5468 24.832C35.0161 25.0027 35.3788 25.1307 35.6348 25.216C35.8908 25.3013 36.1894 25.408 36.5308 25.536C37.4694 25.6213 38.2801 25.664 38.9628 25.664C41.7788 25.664 44.3388 25.216 46.6428 24.32C49.5868 23.168 51.4641 21.44 52.2748 19.136C52.7868 17.6427 53.0428 16.2987 53.0428 15.104C53.0428 12.16 51.6134 9.96267 48.7548 8.512C46.2801 7.232 42.8881 6.592 38.5788 6.592C31.7948 6.592 25.7148 7.872 20.3388 10.432C17.6081 11.712 15.0054 13.6107 12.5308 16.128C10.0988 18.6453 8.88275 20.8 8.88275 22.592C8.88275 23.8293 9.20275 24.8533 9.84275 25.664C10.0988 26.0053 10.5468 26.432 11.1868 26.944C11.4001 27.072 11.2721 27.136 10.8028 27.136C8.15742 26.5387 6.83475 24.768 6.83475 21.824C6.83475 18.88 8.32808 16.1067 11.3148 13.504C13.5334 11.584 16.0294 10.0267 18.8028 8.832C24.5628 6.35733 31.1121 5.12 38.4508 5.12C43.6988 5.12 47.8801 5.888 50.9948 7.424C54.6214 9.13066 56.4348 11.712 56.4348 15.168C56.4348 16.5333 56.1574 17.92 55.6028 19.328C54.7068 21.888 52.3814 23.8293 48.6268 25.152C45.8108 26.1333 42.7814 26.6453 39.5388 26.688C42.0561 26.816 44.1681 27.7547 45.8748 29.504C47.6241 31.2107 48.4988 33.344 48.4988 35.904ZM7.60275 33.536C7.56008 33.536 7.45342 33.5787 7.28275 33.664C4.12542 38.2293 2.54675 41.8987 2.54675 44.672C2.54675 45.824 2.82408 46.8693 3.37875 47.808C3.50675 48.0213 3.72008 48.128 4.01875 48.128C5.38408 48.128 8.00808 46.1867 11.8908 42.304L11.6988 42.048C9.99208 36.3733 8.62675 33.536 7.60275 33.536ZM64.7123 48.32C61.5123 48.32 59.9123 46.5493 59.9123 43.008C59.9123 41.216 60.3816 39.2533 61.3203 37.12C62.2589 34.9867 63.2829 33.1947 64.3923 31.744C64.1789 31.7867 63.9016 31.808 63.5603 31.808C62.5363 31.808 61.6829 31.0827 61.0003 29.632L56.2643 35.776C53.6189 39.0613 52.0829 40.704 51.6562 40.704C51.4429 40.704 51.3362 40.6187 51.3362 40.448C51.3362 40.0213 51.6989 39.4027 52.4243 38.592C56.1363 34.2827 58.7603 30.6347 60.2963 27.648C61.2776 23.936 62.5149 22.08 64.0083 22.08C64.9896 22.08 65.4803 22.5067 65.4803 23.36C65.4803 24.2133 64.9469 25.3013 63.8803 26.624L62.3443 28.672C62.3443 29.568 63.0056 30.016 64.3283 30.016C65.0963 30.016 65.9496 29.7387 66.8883 29.184L68.5522 28.16C68.6376 28.1173 68.8509 28.096 69.1923 28.096C69.5336 28.096 69.8963 28.3093 70.2803 28.736C70.6643 29.1627 70.7923 29.5467 70.6643 29.888L66.2483 35.456C63.5176 38.9547 62.1523 41.728 62.1523 43.776C62.1523 45.7813 63.0909 46.784 64.9683 46.784C66.9309 46.784 69.3416 45.7387 72.2003 43.648C73.9069 42.4107 75.4643 41.024 76.8723 39.488C78.1949 37.952 78.9203 37.184 79.0483 37.184C79.3469 37.184 79.4963 37.3547 79.4963 37.696C79.4963 37.9947 79.3043 38.3573 78.9203 38.784L76.8723 41.088C75.7203 42.2827 74.4403 43.4347 73.0323 44.544C69.6616 47.0613 66.8883 48.32 64.7123 48.32ZM98.1558 28.864L99.0518 28.672C99.5211 28.672 99.9691 28.864 100.396 29.248C100.822 29.632 101.036 29.9307 101.036 30.144C101.036 30.3573 99.7131 32.4267 97.0678 36.352C94.4224 40.2347 93.0998 42.944 93.0998 44.48C93.0998 44.608 93.1211 44.736 93.1638 44.864C93.3771 45.8453 93.8464 46.336 94.5718 46.336C96.7904 46.336 100.844 42.6667 106.732 35.328C106.86 35.1573 107.009 35.072 107.18 35.072C107.35 35.072 107.436 35.2427 107.436 35.584C107.436 35.8827 107.244 36.288 106.86 36.8C101.398 44.096 97.2384 47.744 94.3798 47.744C93.9958 47.744 93.6331 47.68 93.2917 47.552C91.4144 46.8267 90.4758 45.4187 90.4758 43.328C90.4758 42.6027 90.5611 41.8773 90.7318 41.152L86.7638 44.992C84.2464 47.2107 82.4118 48.32 81.2598 48.32C80.1504 48.32 79.0838 47.9573 78.0598 47.232C76.9078 46.3787 76.3317 45.248 76.3317 43.84C76.3317 40.7253 78.5078 37.0133 82.8598 32.704C87.2118 28.352 91.2011 26.176 94.8278 26.176C96.2358 26.176 97.1744 26.6667 97.6438 27.648C97.7718 27.9893 97.8784 28.288 97.9638 28.544C98.0491 28.7573 98.1131 28.864 98.1558 28.864ZM79.0198 44.608C79.0198 46.144 79.5531 46.912 80.6198 46.912C83.0944 46.912 86.4651 44.2027 90.7318 38.784L97.5158 29.44C97.1744 28.8427 96.6198 28.544 95.8518 28.544C93.2491 28.544 89.7931 30.5707 85.4838 34.624C81.1744 38.6347 79.0198 41.9627 79.0198 44.608ZM117.107 21.888C117.747 21.888 118.344 22.1013 118.899 22.528C119.496 22.912 119.795 23.3813 119.795 23.936C119.795 24.4907 119.517 24.9813 118.963 25.408C118.451 25.792 117.875 25.984 117.235 25.984C116.595 25.984 115.997 25.7493 115.443 25.28C114.931 24.8107 114.675 24.2773 114.675 23.68C114.675 22.4853 115.485 21.888 117.107 21.888ZM105.523 48.704C103.347 48.704 102.259 47.296 102.259 44.48C102.259 42.176 103.517 38.9973 106.035 34.944C108.552 30.848 110.579 28.7787 112.115 28.736C112.541 28.736 113.011 28.9067 113.523 29.248C114.077 29.5893 114.355 29.9307 114.355 30.272C114.141 30.5707 113.885 30.912 113.587 31.296C113.288 31.6373 112.968 32.0213 112.627 32.448C112.285 32.8747 111.816 33.4933 111.219 34.304C110.621 35.072 110.045 35.8187 109.491 36.544C106.291 40.6827 104.691 43.5413 104.691 45.12C104.691 46.656 105.224 47.424 106.291 47.424C107.187 47.424 108.403 46.9333 109.939 45.952C113.523 43.7333 116.36 41.3013 118.451 38.656C119.219 37.6747 119.731 37.184 119.987 37.184C120.285 37.184 120.435 37.3547 120.435 37.696C120.435 38.0373 119.944 38.72 118.963 39.744C117.981 40.768 117.192 41.5787 116.595 42.176C116.04 42.7733 115.656 43.1787 115.443 43.392C115.229 43.5627 114.824 43.9253 114.227 44.48C113.672 44.992 113.245 45.3547 112.947 45.568C112.648 45.7813 112.221 46.1013 111.667 46.528C111.112 46.9547 110.621 47.2747 110.195 47.488C109.768 47.6587 109.277 47.872 108.723 48.128C107.827 48.512 106.76 48.704 105.523 48.704ZM138.968 28.864L139.864 28.672C140.334 28.672 140.782 28.864 141.208 29.248C141.635 29.632 141.848 29.9307 141.848 30.144C141.848 30.3573 140.526 32.4267 137.88 36.352C135.235 40.2347 133.912 42.944 133.912 44.48C133.912 44.608 133.934 44.736 133.976 44.864C134.19 45.8453 134.659 46.336 135.384 46.336C137.603 46.336 141.656 42.6667 147.544 35.328C147.672 35.1573 147.822 35.072 147.992 35.072C148.163 35.072 148.248 35.2427 148.248 35.584C148.248 35.8827 148.056 36.288 147.672 36.8C142.211 44.096 138.051 47.744 135.192 47.744C134.808 47.744 134.446 47.68 134.104 47.552C132.227 46.8267 131.288 45.4187 131.288 43.328C131.288 42.6027 131.374 41.8773 131.544 41.152L127.576 44.992C125.059 47.2107 123.224 48.32 122.072 48.32C120.963 48.32 119.896 47.9573 118.872 47.232C117.72 46.3787 117.144 45.248 117.144 43.84C117.144 40.7253 119.32 37.0133 123.672 32.704C128.024 28.352 132.014 26.176 135.64 26.176C137.048 26.176 137.987 26.6667 138.456 27.648C138.584 27.9893 138.691 28.288 138.776 28.544C138.862 28.7573 138.926 28.864 138.968 28.864ZM119.832 44.608C119.832 46.144 120.366 46.912 121.432 46.912C123.907 46.912 127.278 44.2027 131.544 38.784L138.328 29.44C137.987 28.8427 137.432 28.544 136.664 28.544C134.062 28.544 130.606 30.5707 126.296 34.624C121.987 38.6347 119.832 41.9627 119.832 44.608ZM154.335 27.776C155.487 27.776 156.063 28.224 156.063 29.12C156.063 29.376 155.999 29.632 155.871 29.888C152.031 35.2213 149.727 39.2533 148.959 41.984C158.901 32.0427 164.938 27.072 167.071 27.072C167.285 27.0293 167.477 27.008 167.647 27.008C168.842 27.008 169.439 27.5413 169.439 28.608C169.439 28.8213 169.397 29.0347 169.311 29.248C169.226 29.4613 168.373 30.6133 166.751 32.704C164.874 34.9227 163.274 37.056 161.951 39.104C160.671 41.152 160.031 42.8587 160.031 44.224C160.031 45.5893 160.33 46.272 160.927 46.272C162.805 46.272 166.069 43.6907 170.719 38.528C170.805 38.4427 170.954 38.2507 171.167 37.952C171.807 37.184 172.191 36.8 172.319 36.8C172.447 36.8 172.511 37.0133 172.511 37.44C172.511 37.8667 172.213 38.4213 171.615 39.104C166.325 45.12 162.57 48.128 160.351 48.128C158.261 48.128 157.215 46.976 157.215 44.672C157.215 42.368 158.069 39.7227 159.775 36.736L163.871 30.08C160.97 32.2133 158.389 34.56 156.127 37.12C153.866 39.6373 151.797 42.0907 149.919 44.48C148.085 46.8693 147.018 48.064 146.719 48.064C146.079 48.064 145.567 47.808 145.183 47.296C144.842 46.7413 144.671 46.08 144.671 45.312C144.671 44.5013 144.949 43.4347 145.503 42.112C146.058 40.7893 146.762 39.1893 147.615 37.312L143.775 41.344C142.837 42.2827 142.261 42.752 142.047 42.752C141.791 42.752 141.663 42.624 141.663 42.368C141.663 42.0693 141.834 41.7493 142.175 41.408C143.754 39.8293 145.119 38.3147 146.271 36.864C147.381 35.4133 149.663 32.64 153.119 28.544C153.503 28.032 153.909 27.776 154.335 27.776ZM200.643 50.944C200.643 49.7493 203.097 45.12 208.003 37.056C204.505 37.056 202.179 37.2053 201.027 37.504C199.107 37.9733 197.678 38.9333 196.739 40.384C196.398 40.8533 196.099 41.1093 195.843 41.152C195.63 41.1947 195.523 41.1093 195.523 40.896C195.523 40.64 195.609 40.4267 195.779 40.256C197.401 38.08 199.001 36.5867 200.579 35.776C202.158 34.9653 204.654 34.56 208.067 34.56C208.579 34.56 209.091 34.56 209.603 34.56C212.206 30.592 215.854 24.704 220.547 16.896C222.297 13.6107 223.171 10.944 223.171 8.896C223.171 5.61067 221.166 3.94667 217.155 3.904C216.899 3.904 216.665 3.904 216.451 3.904C210.99 3.904 206.019 5.26933 201.539 8C197.059 10.7307 193.518 14.1227 190.915 18.176C188.313 22.2293 187.011 25.8773 187.011 29.12C187.011 33.088 188.867 35.072 192.579 35.072C195.523 35.072 198.041 33.7707 200.131 31.168C202.222 28.5653 203.267 26.0907 203.267 23.744C203.267 22.4213 202.926 21.3333 202.243 20.48C202.158 20.3947 202.115 20.288 202.115 20.16C202.115 19.8613 202.286 19.712 202.627 19.712C202.798 19.712 202.926 19.776 203.011 19.904C203.865 21.0133 204.291 22.336 204.291 23.872C204.291 26.4747 203.225 29.1413 201.091 31.872C198.958 34.56 196.718 36.0533 194.371 36.352C193.646 36.48 192.942 36.544 192.259 36.544C189.529 36.544 187.417 35.6693 185.923 33.92C184.473 32.3413 183.747 30.208 183.747 27.52C183.747 26.4107 183.875 25.28 184.131 24.128C185.411 18.368 189.102 13.3333 195.203 9.024C201.347 4.71466 208.238 2.56 215.875 2.56C218.819 2.56 221.337 3.2 223.427 4.48C225.561 5.71733 226.627 7.46666 226.627 9.728C226.627 11.9893 225.838 14.3787 224.259 16.896L212.675 34.688C214.041 34.7307 216.473 34.944 219.971 35.328C223.513 35.6693 226.158 35.84 227.907 35.84C229.699 35.84 230.894 35.8187 231.491 35.776L233.923 31.744C238.062 24.7893 242.841 18.304 248.259 12.288C253.721 6.22933 258.478 2.47466 262.531 1.024C262.659 0.981332 262.787 0.959999 262.915 0.959999C263.214 0.959999 263.363 1.13066 263.363 1.472C263.363 1.6 263.299 1.70666 263.171 1.792C260.441 3.328 256.515 7.06133 251.395 12.992C246.318 18.88 241.923 24.9387 238.211 31.168L235.715 35.392C237.678 35.136 239.086 34.6453 239.939 33.92C240.11 33.792 240.259 33.8773 240.387 34.176C240.515 34.432 240.494 34.624 240.323 34.752C239.043 35.7333 237.23 36.4373 234.883 36.864C231.897 42.4107 230.403 46.3147 230.403 48.576C230.403 50.0267 231.022 50.752 232.259 50.752C233.113 50.752 234.094 50.4533 235.203 49.856C236.355 49.3013 237.123 48.8107 237.507 48.384C237.891 48 238.126 47.808 238.211 47.808C238.297 47.808 238.318 47.936 238.275 48.192C238.233 48.4907 238.147 48.7253 238.019 48.896C237.294 49.5787 236.206 50.304 234.755 51.072C233.305 51.84 232.131 52.224 231.235 52.224C230.339 52.224 229.678 52.0747 229.251 51.776C227.886 50.88 227.203 49.3227 227.203 47.104C227.203 44.8853 228.334 41.6427 230.595 37.376C229.017 37.504 227.545 37.568 226.179 37.568C225.71 37.568 220.697 37.4187 211.139 37.12C208.11 41.8987 205.678 46.2507 203.843 50.176C203.289 51.328 202.606 51.904 201.795 51.904C201.027 51.904 200.643 51.584 200.643 50.944ZM257.998 32.064C257.998 29.1627 258.894 27.712 260.686 27.712C260.857 27.712 261.049 27.7333 261.262 27.776C261.988 27.904 262.35 28.4587 262.35 29.44C262.35 30.4213 262.18 31.6587 261.838 33.152C261.497 34.2613 261.262 35.0933 261.134 35.648C261.262 36.3733 261.604 37.312 262.158 38.464C262.756 39.5733 263.545 40.128 264.526 40.128C265.55 40.128 266.681 39.4453 267.918 38.08C268.174 37.7813 268.409 37.632 268.622 37.632C268.878 37.632 269.006 37.7813 269.006 38.08C269.049 38.336 268.9 38.6987 268.558 39.168C267.236 40.7467 265.849 41.536 264.398 41.536C262.308 41.536 260.622 40 259.342 36.928C258.02 39.9573 256.142 42.5813 253.71 44.8C251.278 46.976 248.868 48.064 246.478 48.064C244.217 48.064 243.086 46.3573 243.086 42.944C243.086 40.256 245.582 35.3067 250.574 28.096C255.609 20.8853 259.449 17.28 262.094 17.28C262.649 17.28 263.14 17.4507 263.566 17.792C264.036 18.1333 264.27 18.5387 264.27 19.008C264.27 18.9653 263.95 19.2853 263.31 19.968C262.713 20.6507 261.028 22.4853 258.254 25.472C255.524 28.4587 252.836 31.744 250.19 35.328C247.545 38.912 246.222 41.6853 246.222 43.648C246.222 44.16 246.35 44.7147 246.606 45.312C246.905 45.9093 247.374 46.208 248.014 46.208C249.892 46.208 252.089 44.7573 254.606 41.856C256.697 39.296 257.977 37.1413 258.446 35.392C258.148 34.496 257.998 33.3867 257.998 32.064Z" fill="#EA6E90"/>
</svg>
